<mxfile host="app.diagrams.net" agent="Mozilla/5.0 (Macintosh; Intel Mac OS X 10_15_7) AppleWebKit/537.36 (KHTML, like Gecko) Chrome/134.0.0.0 Safari/537.36" version="26.2.14">
  <diagram name="第 1 页" id="5Lg5MpXRoIuz0EuKUf0O">
    <mxGraphModel dx="679" dy="459" grid="1" gridSize="10" guides="1" tooltips="1" connect="1" arrows="1" fold="1" page="1" pageScale="1" pageWidth="827" pageHeight="1169" math="0" shadow="0">
      <root>
        <mxCell id="0" />
        <mxCell id="1" parent="0" />
        <mxCell id="Zr-1xLVt4nIwazJj980S-26" value="" style="rounded=0;whiteSpace=wrap;html=1;fillColor=#f5f5f5;fontColor=#333333;strokeColor=#666666;" vertex="1" parent="1">
          <mxGeometry x="208" y="170" width="630" height="280" as="geometry" />
        </mxCell>
        <mxCell id="Zr-1xLVt4nIwazJj980S-9" style="edgeStyle=orthogonalEdgeStyle;rounded=0;orthogonalLoop=1;jettySize=auto;html=1;entryX=0.5;entryY=0;entryDx=0;entryDy=0;" edge="1" parent="1" source="Zr-1xLVt4nIwazJj980S-2" target="Zr-1xLVt4nIwazJj980S-3">
          <mxGeometry relative="1" as="geometry" />
        </mxCell>
        <mxCell id="Zr-1xLVt4nIwazJj980S-2" value="Sequence" style="rounded=1;whiteSpace=wrap;html=1;fillColor=#fff2cc;strokeColor=#d6b656;" vertex="1" parent="1">
          <mxGeometry x="240" y="200" width="80" height="30" as="geometry" />
        </mxCell>
        <mxCell id="Zr-1xLVt4nIwazJj980S-10" style="edgeStyle=orthogonalEdgeStyle;rounded=0;orthogonalLoop=1;jettySize=auto;html=1;entryX=0;entryY=0.5;entryDx=0;entryDy=0;" edge="1" parent="1" source="Zr-1xLVt4nIwazJj980S-3" target="Zr-1xLVt4nIwazJj980S-7">
          <mxGeometry relative="1" as="geometry" />
        </mxCell>
        <mxCell id="Zr-1xLVt4nIwazJj980S-3" value="Sequencer" style="rounded=0;whiteSpace=wrap;html=1;fillColor=#dae8fc;strokeColor=#6c8ebf;" vertex="1" parent="1">
          <mxGeometry x="220" y="260" width="120" height="50" as="geometry" />
        </mxCell>
        <mxCell id="Zr-1xLVt4nIwazJj980S-12" value="" style="edgeStyle=orthogonalEdgeStyle;rounded=0;orthogonalLoop=1;jettySize=auto;html=1;" edge="1" parent="1" source="Zr-1xLVt4nIwazJj980S-7" target="Zr-1xLVt4nIwazJj980S-11">
          <mxGeometry relative="1" as="geometry" />
        </mxCell>
        <mxCell id="Zr-1xLVt4nIwazJj980S-19" style="edgeStyle=orthogonalEdgeStyle;rounded=0;orthogonalLoop=1;jettySize=auto;html=1;" edge="1" parent="1" source="Zr-1xLVt4nIwazJj980S-7">
          <mxGeometry relative="1" as="geometry">
            <mxPoint x="440" y="360" as="targetPoint" />
          </mxGeometry>
        </mxCell>
        <mxCell id="Zr-1xLVt4nIwazJj980S-7" value="Driver" style="rounded=0;whiteSpace=wrap;html=1;fillColor=#d5e8d4;strokeColor=#82b366;" vertex="1" parent="1">
          <mxGeometry x="380" y="260" width="120" height="50" as="geometry" />
        </mxCell>
        <mxCell id="Zr-1xLVt4nIwazJj980S-16" value="" style="edgeStyle=orthogonalEdgeStyle;rounded=0;orthogonalLoop=1;jettySize=auto;html=1;" edge="1" parent="1" source="Zr-1xLVt4nIwazJj980S-11" target="Zr-1xLVt4nIwazJj980S-15">
          <mxGeometry relative="1" as="geometry" />
        </mxCell>
        <mxCell id="Zr-1xLVt4nIwazJj980S-20" style="edgeStyle=orthogonalEdgeStyle;rounded=0;orthogonalLoop=1;jettySize=auto;html=1;endArrow=none;endFill=1;startFill=1;startArrow=classic;" edge="1" parent="1" source="Zr-1xLVt4nIwazJj980S-11">
          <mxGeometry relative="1" as="geometry">
            <mxPoint x="600" y="360" as="targetPoint" />
          </mxGeometry>
        </mxCell>
        <mxCell id="Zr-1xLVt4nIwazJj980S-11" value="Monitor" style="rounded=0;whiteSpace=wrap;html=1;fillColor=#f8cecc;strokeColor=#b85450;" vertex="1" parent="1">
          <mxGeometry x="540" y="260" width="120" height="50" as="geometry" />
        </mxCell>
        <mxCell id="Zr-1xLVt4nIwazJj980S-15" value="Scoreboard" style="rounded=0;whiteSpace=wrap;html=1;fillColor=#e1d5e7;strokeColor=#9673a6;" vertex="1" parent="1">
          <mxGeometry x="700" y="260" width="120" height="50" as="geometry" />
        </mxCell>
        <mxCell id="Zr-1xLVt4nIwazJj980S-17" value="" style="endArrow=none;html=1;rounded=0;strokeWidth=5;fillColor=#fff2cc;strokeColor=#d6b656;" edge="1" parent="1">
          <mxGeometry width="50" height="50" relative="1" as="geometry">
            <mxPoint x="405" y="363" as="sourcePoint" />
            <mxPoint x="645" y="363" as="targetPoint" />
          </mxGeometry>
        </mxCell>
        <mxCell id="Zr-1xLVt4nIwazJj980S-21" value="DUT" style="rounded=0;whiteSpace=wrap;html=1;fillColor=#ffe6cc;strokeColor=#d79b00;" vertex="1" parent="1">
          <mxGeometry x="463" y="365" width="120" height="60" as="geometry" />
        </mxCell>
        <mxCell id="Zr-1xLVt4nIwazJj980S-28" value="Environment" style="text;html=1;align=center;verticalAlign=middle;resizable=0;points=[];autosize=1;strokeColor=none;fillColor=none;" vertex="1" parent="1">
          <mxGeometry x="737" y="410" width="90" height="30" as="geometry" />
        </mxCell>
      </root>
    </mxGraphModel>
  </diagram>
</mxfile>
